<?xml version="1.0" standalone="no"?>
<!DOCTYPE svg PUBLIC "-//W3C//DTD SVG 20010904//EN"
 "http://www.w3.org/TR/2001/REC-SVG-20010904/DTD/svg10.dtd">
<svg version="1.0" xmlns="http://www.w3.org/2000/svg"
 width="65" height="65" viewBox="680 265 500.000000 750.000000"
 preserveAspectRatio="xMidYMid meet">

<g transform="translate(0.000000,1280.000000) scale(0.100000,-0.100000)"
fill="#2b9519" stroke="none">
<path d="M7993 9586 c-39 -18 -89 -85 -104 -140 -9 -32 -8 -54 5 -105 22 -87
68 -166 205 -350 192 -256 221 -306 221 -383 0 -45 5 -40 -157 -168 -170 -135
-334 -339 -436 -545 -258 -520 -221 -1146 97 -1639 464 -718 1403 -970 2166
-580 514 262 848 760 900 1341 13 136 7 244 -22 428 -22 139 -20 211 7 252 29
44 134 101 314 172 321 126 417 181 467 267 23 39 26 53 22 115 -3 65 -7 74
-36 100 -50 45 -100 54 -222 39 -58 -7 -126 -15 -152 -17 l-47 -5 -11 44 c-6
23 -15 54 -18 68 -4 14 -21 31 -37 39 -61 29 -218 -29 -316 -117 -153 -137
-199 -328 -119 -501 18 -39 36 -71 39 -71 3 0 24 35 45 77 45 87 138 188 203
222 66 33 68 25 10 -31 -65 -65 -108 -126 -152 -221 -66 -140 -78 -240 -50
-412 31 -186 26 -396 -16 -596 -122 -590 -582 -1069 -1171 -1220 -424 -108
-891 -29 -1259 214 -659 435 -902 1299 -563 2007 116 242 294 462 500 618 54
40 87 74 99 99 30 63 31 176 1 356 -31 188 -31 185 -7 163 45 -40 110 -253
111 -358 0 -20 5 -40 10 -43 6 -4 33 8 60 25 132 85 200 229 187 400 -11 145
-71 264 -157 308 -55 27 -89 28 -165 1 -90 -31 -119 -24 -208 54 -42 36 -89
73 -105 81 -45 23 -102 28 -139 12z"/>
<path d="M7180 9192 c-67 -11 -120 -91 -120 -179 0 -97 84 -226 275 -423 45
-47 107 -115 138 -152 126 -152 128 -188 18 -418 -88 -182 -141 -333 -170
-479 -75 -375 -42 -753 96 -1101 104 -265 244 -472 459 -680 174 -168 301
-257 519 -361 487 -232 1051 -249 1555 -48 589 235 1032 755 1169 1373 22 100
41 133 92 158 57 29 132 39 359 48 319 14 426 35 502 98 66 55 87 160 45 223
-31 48 -97 77 -238 105 -66 13 -126 27 -131 30 -6 4 -8 32 -6 68 8 106 -15
126 -154 134 -144 7 -283 -35 -387 -119 -87 -69 -140 -199 -126 -308 4 -31 9
-59 11 -63 3 -4 35 16 72 44 37 28 95 64 130 80 64 29 225 72 244 66 6 -2 -31
-25 -83 -51 -204 -101 -328 -248 -361 -426 -5 -31 -30 -116 -54 -190 -200
-609 -703 -1083 -1318 -1241 -864 -222 -1772 197 -2157 995 -121 250 -177 477
-186 760 -11 348 45 617 192 920 34 72 68 155 75 186 20 89 8 251 -29 398 -17
68 -30 126 -27 128 8 9 46 -51 66 -105 30 -80 49 -169 58 -267 l7 -84 53 41
c64 50 126 141 149 217 23 77 20 207 -6 291 -34 110 -110 213 -183 251 -57 29
-75 25 -126 -31 -25 -27 -52 -50 -61 -50 -9 0 -58 29 -110 65 -116 80 -189
108 -251 97z"/>
<path d="M8821 8719 c-57 -8 -186 -66 -214 -97 -17 -19 -16 -19 35 -25 62 -8
180 -62 231 -107 21 -18 36 -34 34 -36 -2 -2 -26 7 -54 20 -104 51 -283 75
-353 48 -24 -9 -23 -10 20 -30 59 -27 102 -69 243 -239 123 -149 213 -228 273
-239 51 -9 101 4 137 36 29 25 32 34 31 82 0 42 -10 74 -47 152 -26 54 -47
102 -47 107 0 4 20 22 45 39 38 26 45 36 45 64 0 44 -49 118 -106 159 -80 58
-170 80 -273 66z"/>
<path d="M8362 8219 c-153 -19 -267 -121 -297 -266 l-6 -31 73 20 c89 24 242
28 308 8 l45 -14 -86 -7 c-167 -14 -277 -56 -359 -138 -38 -38 -55 -68 -88
-153 -193 -494 -89 -1040 271 -1419 202 -214 446 -348 740 -410 133 -28 359
-31 497 -5 366 66 691 279 895 585 35 53 79 128 96 167 29 64 31 75 26 145
-10 124 -72 255 -177 372 -29 32 -50 61 -47 64 11 10 106 -58 154 -111 53 -57
95 -136 114 -210 l12 -48 15 33 c26 55 22 229 -6 300 -68 173 -239 323 -381
336 -76 7 -102 -13 -109 -85 -2 -29 -10 -56 -16 -60 -6 -4 -63 -7 -126 -8
-137 0 -189 -13 -224 -55 -21 -24 -26 -41 -26 -82 0 -122 98 -185 385 -246
232 -50 307 -76 351 -122 25 -26 28 -36 28 -97 0 -56 -5 -77 -32 -127 -66
-122 -193 -272 -311 -367 -259 -207 -576 -311 -896 -294 -328 17 -615 141
-843 364 -362 353 -494 858 -352 1342 49 164 102 172 415 55 262 -97 352 -117
433 -95 82 22 142 102 127 169 -10 46 -69 106 -165 167 -98 62 -106 75 -70
129 28 42 25 76 -7 107 -73 68 -223 104 -361 87z"/>
<path d="M10202 8062 c-59 -21 -102 -56 -102 -83 0 -10 7 -34 16 -53 9 -19 14
-41 11 -49 -3 -8 -44 -36 -92 -63 -147 -82 -185 -148 -134 -231 50 -80 158
-93 350 -43 63 16 156 40 208 54 100 27 174 34 231 22 l35 -8 -44 45 c-24 25
-69 59 -100 76 -58 31 -188 71 -229 71 -13 0 -20 4 -17 10 9 15 143 12 208 -5
32 -8 76 -24 98 -36 l41 -20 -7 23 c-18 62 -73 157 -117 200 -98 95 -240 131
-356 90z"/>
<path d="M8876 5029 c-56 -13 -78 -35 -74 -77 5 -54 43 -77 128 -77 89 0 125
23 125 81 0 32 -5 41 -30 55 -39 22 -100 29 -149 18z"/>
<path d="M7952 4734 c-28 -14 -63 -39 -76 -55 l-25 -29 -3 47 -3 48 -99 3
c-55 1 -102 -1 -105 -7 -3 -5 -4 -130 -1 -278 l5 -268 99 -3 c73 -2 102 1 108
10 4 7 8 91 8 186 0 169 0 173 24 197 46 46 112 45 143 -2 15 -22 19 -58 23
-208 l5 -180 105 0 105 0 5 177 c5 159 7 179 26 205 29 39 68 51 102 32 46
-25 52 -51 52 -229 0 -116 4 -170 12 -178 8 -8 46 -12 105 -12 84 0 93 2 104
21 8 15 10 81 7 214 -3 181 -5 194 -29 240 -33 65 -88 95 -174 95 -80 0 -144
-22 -197 -70 l-44 -38 -33 40 c-62 73 -155 89 -249 42z"/>
<path d="M9355 4751 c-53 -13 -112 -49 -144 -88 -42 -52 -61 -113 -61 -204 0
-68 4 -85 33 -141 51 -99 142 -148 277 -148 63 0 148 18 179 37 20 13 23 21
18 60 -7 68 -20 75 -93 55 -115 -30 -184 15 -192 128 -5 70 16 122 60 150 33
21 76 22 175 4 29 -5 34 -3 43 21 18 47 13 90 -12 103 -56 29 -208 41 -283 23z"/>
<path d="M10140 4753 c-35 -13 -74 -49 -101 -91 l-29 -46 0 55 c0 29 -4 60 -8
67 -6 9 -34 12 -103 10 l-94 -3 0 -275 0 -275 105 0 105 0 5 152 c5 139 7 154
26 174 27 27 76 37 134 28 26 -4 48 -3 51 3 8 13 20 188 13 199 -6 10 -80 11
-104 2z"/>
<path d="M10485 4747 c-134 -44 -196 -130 -197 -270 -1 -138 43 -219 147 -272
56 -28 67 -30 175 -30 128 0 174 14 242 73 73 65 103 207 69 325 -18 63 -78
129 -143 157 -65 29 -228 38 -293 17z m173 -143 c37 -25 52 -67 52 -142 0 -80
-25 -129 -74 -145 -41 -14 -93 13 -112 58 -18 44 -18 136 0 179 25 61 86 84
134 50z"/>
<path d="M8842 4734 c-22 -15 -22 -18 -22 -264 0 -213 2 -251 16 -264 11 -12
36 -16 94 -16 114 0 110 -10 110 278 l0 233 -25 24 c-20 21 -34 25 -87 25 -41
0 -71 -5 -86 -16z"/>
<path d="M7779 4007 c-171 -91 -189 -400 -29 -510 39 -28 55 -32 121 -35 62
-3 83 0 118 17 22 12 47 30 53 41 21 34 31 22 23 -27 -19 -132 -71 -168 -210
-151 -60 7 -72 6 -82 -9 -18 -23 -16 -88 2 -103 27 -22 160 -34 241 -22 117
18 186 65 232 157 37 75 43 138 40 400 l-3 250 -105 0 -105 0 3 -50 3 -50 -37
44 c-21 24 -53 50 -71 57 -52 22 -143 18 -194 -9z m246 -150 c40 -40 53 -104
35 -175 -21 -84 -83 -121 -149 -88 -43 23 -64 69 -64 141 0 136 98 202 178
122z"/>
<path d="M8745 4006 c-22 -13 -51 -43 -65 -65 -14 -22 -28 -41 -32 -41 -4 0
-8 26 -10 58 l-3 57 -100 0 -100 0 -3 -258 c-1 -166 1 -265 8 -277 10 -18 21
-20 105 -20 83 0 96 2 105 19 5 11 10 81 10 156 0 132 1 137 25 159 30 28 76
37 135 26 25 -5 46 -7 47 -6 1 1 5 50 9 109 l7 107 -49 0 c-34 0 -61 -8 -89
-24z"/>
<path d="M9133 4011 c-139 -47 -212 -141 -213 -273 0 -108 63 -215 155 -261
42 -20 126 -37 189 -37 149 0 216 39 216 126 l0 47 -37 -7 c-135 -24 -155 -26
-194 -17 -49 11 -87 45 -91 81 -3 25 -3 25 103 31 117 7 173 28 213 82 31 43
29 124 -6 170 -55 71 -216 100 -335 58z m166 -112 c43 -15 57 -43 37 -74 -18
-27 -65 -42 -141 -47 -48 -3 -50 -2 -47 22 6 44 36 84 72 97 44 15 41 15 79 2z"/>
<path d="M9790 4012 c-71 -27 -104 -48 -144 -92 -50 -56 -68 -102 -68 -175 0
-131 46 -208 156 -265 68 -34 71 -35 190 -35 133 0 178 15 203 66 17 33 16 88
-1 95 -8 3 -49 -2 -92 -11 -111 -23 -187 -5 -212 50 -23 50 -20 52 91 57 167
6 237 55 237 167 0 44 -5 56 -35 90 -22 24 -54 46 -82 55 -61 21 -184 20 -243
-2z m169 -113 c34 -12 51 -51 34 -77 -12 -20 -64 -37 -137 -46 l-59 -8 7 33
c9 47 32 78 69 94 39 17 46 18 86 4z"/>
<path d="M10616 4010 c-27 -11 -66 -33 -87 -50 l-38 -30 -3 42 -3 43 -105 0
-105 0 -3 -264 c-2 -190 1 -267 9 -278 9 -10 35 -13 108 -11 l96 3 5 176 c4
159 7 179 25 199 46 51 124 65 166 31 23 -19 24 -25 29 -203 3 -100 9 -189 13
-195 6 -9 38 -13 102 -13 86 0 95 2 106 21 15 29 7 393 -10 434 -17 41 -59 85
-98 101 -46 20 -149 17 -207 -6z"/>
</g>
</svg>
